<svg width="35" height="36" viewBox="0 0 35 36" fill="none" xmlns="http://www.w3.org/2000/svg">
<path d="M27.3153 0.275889C28.4099 0.277006 29.4909 0.519346 30.4812 0.985669C31.4716 1.45199 32.347 2.13084 33.0452 2.97391C33.7434 3.81699 34.2472 4.80357 34.5208 5.86347C34.7944 6.92338 34.8311 8.03055 34.6282 9.10624C34.4253 10.1819 33.9879 11.1997 33.347 12.0871C32.7061 12.9745 31.8775 13.7098 30.9202 14.2406C29.9628 14.7714 28.9003 15.0848 27.8081 15.1583C26.7159 15.2318 25.621 15.0638 24.6011 14.6661L16.1408 25.9373V32.5576H19.8656C20.1949 32.5576 20.5107 32.6884 20.7436 32.9212C20.9764 33.1541 21.1073 33.4699 21.1073 33.7992C21.1073 34.1285 20.9764 34.4443 20.7436 34.6771C20.5107 34.91 20.1949 35.0408 19.8656 35.0408H9.93282C9.60353 35.0408 9.28772 34.91 9.05488 34.6771C8.82203 34.4443 8.69122 34.1285 8.69122 33.7992C8.69122 33.4699 8.82203 33.1541 9.05488 32.9212C9.28772 32.6884 9.60353 32.5576 9.93282 32.5576H13.6576V25.9373L0.496641 8.4059C0.174266 7.97607 0 7.45327 0 6.91598V6.50129C0 6.17199 0.130811 5.85619 0.363657 5.62334C0.596503 5.39049 0.912309 5.25968 1.2416 5.25968H4.02776L1.48496 2.00668C1.28211 1.7472 1.19065 1.41776 1.2307 1.09085C1.27075 0.763934 1.43903 0.466318 1.69851 0.263473C1.958 0.060628 2.28743 -0.0308296 2.61435 0.00921988C2.94126 0.0492693 3.23888 0.217545 3.44172 0.477028L7.17647 5.25968H20.2803C20.7919 3.80237 21.7436 2.54002 23.0039 1.64719C24.2642 0.754358 25.7708 0.275169 27.3153 0.275889ZM23.0044 5.25968H28.5569C28.8862 5.25968 29.202 5.39049 29.4348 5.62334C29.6677 5.85619 29.7985 6.17199 29.7985 6.50129V6.9135C29.7985 7.45079 29.6242 7.97359 29.3018 8.40342L26.1804 12.5628C27.0773 12.7729 28.015 12.7295 28.8886 12.4373C29.7622 12.1451 30.5373 11.6157 31.1273 10.9083C31.7173 10.2009 32.099 9.34335 32.2296 8.43149C32.3602 7.51963 32.2346 6.58941 31.8669 5.74482C31.4992 4.90023 30.9038 4.17454 30.1474 3.64889C29.3909 3.12324 28.5031 2.81833 27.5833 2.76825C26.6635 2.71818 25.7479 2.9249 24.9389 3.36532C24.1298 3.80573 23.4592 4.46249 23.0019 5.26217V5.25968H23.0044ZM9.11833 7.74289L14.1419 14.1744C14.3332 14.4347 14.4156 14.7594 14.3714 15.0795C14.3272 15.3995 14.1601 15.6898 13.9054 15.8886C13.6507 16.0873 13.3285 16.179 13.0073 16.1441C12.6861 16.1092 12.3911 15.9504 12.1851 15.7016L5.96714 7.74289H3.10401L14.8992 23.4541L26.6945 7.74289H9.11833Z" fill="#9E9E9E"/>
</svg>
