<svg width="52" height="18" viewBox="0 0 52 18" fill="none" xmlns="http://www.w3.org/2000/svg">
<g opacity="0.4">
<path d="M0 16.9259H4.20688V15.2407H2.48477V9.29942H3.82556V7.94633H2.48477V1.93123H4.18228V0.196813H0V16.9259Z" fill="#F8E9B7"/>
<path d="M8.6957 16.9259H11.1436L9.65516 0.196813H6.88748L5.39908 16.9259H7.85924L7.93305 14.3182H8.62189L8.6957 16.9259ZM7.96995 12.8667L8.21597 4.35449H8.31437L8.57269 12.8667H7.96995Z" fill="#F8E9B7"/>
<path d="M12.3604 15.1054C12.3604 16.4585 13.2583 17.135 15.0542 17.135C16.5918 17.135 17.5513 16.4708 17.5636 15.2038V14.3182C17.5636 11.8211 17.2069 10.0375 16.7641 8.86889C16.5426 8.27845 16.2474 7.61421 15.8907 6.88846C15.5832 6.23652 15.3372 5.68298 15.1526 5.22785C14.9681 4.76042 14.8328 4.23148 14.7467 3.64104C14.6606 3.11211 14.6237 2.57087 14.6237 2.01733C14.6237 1.78362 14.7713 1.66061 14.9804 1.66061C15.1895 1.66061 15.3249 1.78362 15.3249 2.01733V4.84652H17.4775V2.02964C17.4775 0.75035 16.6164 0 14.882 0C13.246 0 12.385 0.627342 12.3727 2.05424V2.71848C12.3727 4.32989 12.631 5.52307 12.9754 6.37183C13.1476 6.80235 13.3813 7.31899 13.6888 7.92173C13.9595 8.47527 14.1809 8.955 14.3531 9.36093C14.5253 9.76685 14.6852 10.2466 14.8328 10.8247C14.9927 11.3906 15.1034 12.0302 15.1772 12.756C15.2511 13.3341 15.288 14.1213 15.288 15.1177C15.288 15.3514 15.1526 15.4744 14.9435 15.4744C14.7221 15.4744 14.5991 15.3514 14.5868 15.1177V11.3414H12.3604V15.1054Z" fill="#F8E9B7"/>
<path d="M20.1458 16.9259H22.5937V11.6858L24.242 0.196813H21.7326L21.4128 8.72128H21.3021L20.9453 0.196813H18.4729L20.1458 11.6981V16.9259Z" fill="#F8E9B7"/>
<path d="M29.4432 16.9259H33.6501V15.2407H31.928V9.29942H33.2688V7.94633H31.928V1.93123H33.6255V0.196813H29.4432V16.9259Z" fill="#F8E9B7"/>
<path d="M38.1389 16.9259H40.5868L39.0984 0.196813H36.3307L34.8423 16.9259H37.3025L37.3763 14.3182H38.0651L38.1389 16.9259ZM37.4132 12.8667L37.6592 4.35449H37.7576L38.0159 12.8667H37.4132Z" fill="#F8E9B7"/>
<path d="M42.0988 16.9259H44.5344V2.06654H45.5062V0.196813H41.1271V2.06654H42.0988V16.9259Z" fill="#F8E9B7"/>
<path d="M46.7968 15.1054C46.7968 16.4585 47.6947 17.135 49.4906 17.135C51.0282 17.135 51.9877 16.4708 52 15.2038V14.3182C52 11.8211 51.6433 10.0375 51.2005 8.86889C50.979 8.27845 50.6838 7.61421 50.3271 6.88846C50.0196 6.23652 49.7736 5.68298 49.589 5.22785C49.4045 4.76042 49.2692 4.23148 49.1831 3.64104C49.097 3.11211 49.0601 2.57087 49.0601 2.01733C49.0601 1.78362 49.2077 1.66061 49.4168 1.66061C49.6259 1.66061 49.7613 1.78362 49.7613 2.01733V4.84652H51.9139V2.02964C51.9139 0.75035 51.0528 0 49.3184 0C47.6824 0 46.8214 0.627342 46.8091 2.05424V2.71848C46.8091 4.32989 47.0674 5.52307 47.4118 6.37183C47.584 6.80235 47.8177 7.31899 48.1252 7.92173C48.3959 8.47527 48.6173 8.955 48.7895 9.36093C48.9617 9.76685 49.1216 10.2466 49.2692 10.8247C49.4291 11.3906 49.5398 12.0302 49.6136 12.756C49.6874 13.3341 49.7243 14.1213 49.7243 15.1177C49.7243 15.3514 49.589 15.4744 49.3799 15.4744C49.1585 15.4744 49.0355 15.3514 49.0232 15.1177V11.3414H46.7968V15.1054Z" fill="#F8E9B7"/>
</g>
</svg>
